<svg width="14" height="14" viewBox="0 0 14 14" fill="none" xmlns="http://www.w3.org/2000/svg">
<path fill-rule="evenodd" clip-rule="evenodd" d="M10.8743 9.64467L13.7599 12.5773C14.08 12.9027 14.08 13.4303 13.7599 13.756C13.5999 13.9187 13.39 14 13.18 14C12.9701 14 12.7602 13.9187 12.6002 13.7553L9.71461 10.8227C9.70941 10.8174 9.70505 10.8116 9.7007 10.8058C9.69737 10.8013 9.69404 10.7969 9.69034 10.7927C8.60407 11.6783 7.28493 12.1233 5.96448 12.1233C4.43806 12.1233 2.91164 11.5317 1.74699 10.348C-0.582329 7.98067 -0.582329 4.14267 1.74699 1.77533C2.91164 0.591667 4.43806 0 5.96448 0C7.4909 0 9.01732 0.591667 10.182 1.77533C12.2771 3.90467 12.4815 7.22067 10.8074 9.58933C10.8142 9.5948 10.821 9.60006 10.8278 9.60531C10.8439 9.61766 10.8598 9.62993 10.8743 9.64467ZM2.9064 9.16967C3.7234 9.99967 4.80934 10.457 5.96448 10.457C7.11963 10.457 8.20557 9.99967 9.02257 9.16967C10.7087 7.456 10.7087 4.66767 9.02257 2.954C8.20557 2.124 7.11963 1.66667 5.96448 1.66667C4.80934 1.66667 3.72307 2.124 2.9064 2.954C1.22025 4.66767 1.22025 7.456 2.9064 9.16967Z" fill="#74CFB7"/>
</svg>
